<svg width="27" height="31" viewBox="0 0 27 31" fill="none" xmlns="http://www.w3.org/2000/svg">
<path fill-rule="evenodd" clip-rule="evenodd" d="M21.9375 4.52084H5.0625V6.45834C5.0625 10.58 7.3044 14.1005 10.4645 15.5C7.3044 16.8995 5.0625 20.42 5.0625 24.5417V26.4792H21.9375V24.5417C21.9375 20.42 19.6956 16.8995 16.5355 15.5C19.6956 14.1005 21.9375 10.58 21.9375 6.45834V4.52084Z" fill="#2A8F35"/>
<path d="M3.375 1.29166C3.06434 1.29166 2.8125 1.58082 2.8125 1.9375V3.22916C2.8125 3.58584 3.06434 3.875 3.375 3.875H23.625C23.9357 3.875 24.1875 3.58584 24.1875 3.22916V1.9375C24.1875 1.58082 23.9357 1.29166 23.625 1.29166H3.375Z" fill="#2A8F35"/>
<path d="M3.375 27.125C3.06434 27.125 2.8125 27.4141 2.8125 27.7708V29.0625C2.8125 29.4192 3.06434 29.7083 3.375 29.7083H23.625C23.9357 29.7083 24.1875 29.4192 24.1875 29.0625V27.7708C24.1875 27.4141 23.9357 27.125 23.625 27.125H3.375Z" fill="#2A8F35"/>
</svg>
