<svg width="21" height="22" viewBox="0 0 21 22" fill="none" xmlns="http://www.w3.org/2000/svg">
<path fill-rule="evenodd" clip-rule="evenodd" d="M17.5011 18.0699C14.4977 21.1263 10.0503 21.7867 6.41077 20.074C5.87349 19.8539 5.43299 19.676 5.01423 19.676C3.84781 19.683 2.39596 20.8339 1.64139 20.067C0.88682 19.2991 2.01867 17.8206 2.01867 16.6266C2.01867 16.2004 1.85077 15.7602 1.63447 15.2124C-0.0494763 11.5096 0.6004 6.98269 3.60386 3.92721C7.43793 0.0244319 13.6671 0.0244322 17.5011 3.9262C21.3421 7.83501 21.3352 14.1681 17.5011 18.0699Z" stroke="#939393" stroke-linecap="round" stroke-linejoin="round"/>
<path d="M14.4232 11.413H14.432" stroke="#939393" stroke-width="1.5" stroke-linecap="round" stroke-linejoin="round"/>
<path d="M10.4833 11.413H10.4921" stroke="#939393" stroke-width="1.5" stroke-linecap="round" stroke-linejoin="round"/>
<path d="M6.54341 11.413H6.55226" stroke="#939393" stroke-width="1.5" stroke-linecap="round" stroke-linejoin="round"/>
</svg>
