<svg width="26" height="32" viewBox="0 0 26 32" fill="none" xmlns="http://www.w3.org/2000/svg">
<path d="M22.75 30.6667H3.25001C2.95086 30.6667 2.70834 30.3682 2.70834 30V28.6667C2.70834 28.2985 2.95086 28 3.25001 28H22.75C23.0492 28 23.2917 28.2985 23.2917 28.6667V30C23.2917 30.3682 23.0492 30.6667 22.75 30.6667Z" fill="white"/>
<path d="M22.75 4H3.25001C2.95086 4 2.70834 3.70152 2.70834 3.33334V2C2.70834 1.63182 2.95086 1.33334 3.25001 1.33334H22.75C23.0492 1.33334 23.2917 1.63182 23.2917 2V3.33334C23.2917 3.70152 23.0492 4 22.75 4Z" fill="white"/>
<path d="M5.41667 2.66666C5.11752 2.66666 4.875 2.96514 4.875 3.33333V6.66666C4.875 10.8605 7.49883 14.4513 10.4882 15.9367C10.5341 15.9595 10.5341 16.0405 10.4882 16.0633C7.49883 17.5487 4.875 21.1395 4.875 25.3333V28.6667C4.875 29.0349 5.11752 29.3333 5.41667 29.3333H20.5833C20.8825 29.3333 21.125 29.0349 21.125 28.6667V25.3333C21.125 21.1395 18.5012 17.5487 15.5118 16.0633C15.4659 16.0405 15.4659 15.9595 15.5118 15.9367C18.5012 14.4513 21.125 10.8605 21.125 6.66666V3.33333C21.125 2.96514 20.8825 2.66666 20.5833 2.66666H5.41667Z" stroke="#FFFEFE" stroke-width="3"/>
<path d="M5.41666 29.3333H20.5833V22.6667C20.5833 21.1939 19.6133 20 18.4167 20H7.58332C6.38673 20 5.41666 21.1939 5.41666 22.6667V29.3333Z" fill="white"/>
</svg>
