<svg width="27" height="31" viewBox="0 0 27 31" fill="none" xmlns="http://www.w3.org/2000/svg">
<path d="M23.625 29.7083H3.375C3.06434 29.7083 2.8125 29.4192 2.8125 29.0625V27.7708C2.8125 27.4141 3.06434 27.125 3.375 27.125H23.625C23.9357 27.125 24.1875 27.4141 24.1875 27.7708V29.0625C24.1875 29.4192 23.9357 29.7083 23.625 29.7083Z" fill="#ED3435"/>
<path d="M23.625 3.875H3.375C3.06434 3.875 2.8125 3.58584 2.8125 3.22916V1.9375C2.8125 1.58082 3.06434 1.29166 3.375 1.29166H23.625C23.9357 1.29166 24.1875 1.58082 24.1875 1.9375V3.22916C24.1875 3.58584 23.9357 3.875 23.625 3.875Z" fill="#ED3435"/>
<path fill-rule="evenodd" clip-rule="evenodd" d="M5.34375 27.7708C5.34375 28.6625 5.97336 29.3854 6.75 29.3854H20.25C21.0266 29.3854 21.6562 28.6625 21.6562 27.7708V23.8958C21.6562 19.9325 19.5118 16.5442 16.4824 15.1771C19.5118 13.81 21.6562 10.4217 21.6562 6.45834V3.22917C21.6562 2.33746 21.0266 1.61459 20.25 1.61459H6.75C5.97336 1.61459 5.34375 2.33746 5.34375 3.22917V6.45834C5.34375 10.4217 7.48817 13.81 10.5176 15.1771C7.48817 16.5442 5.34375 19.9325 5.34375 23.8958V27.7708ZM7.03125 27.4479V23.8958C7.03125 20.4665 9.05558 17.58 11.8071 16.7257C12.4346 16.5309 12.9375 15.9234 12.9375 15.1771C12.9375 14.4308 12.4346 13.8233 11.8071 13.6285C9.05558 12.7742 7.03125 9.88771 7.03125 6.45834V3.55209H19.9688V6.45834C19.9688 9.88771 17.9444 12.7742 15.1929 13.6285C14.5654 13.8233 14.0625 14.4308 14.0625 15.1771C14.0625 15.9234 14.5654 16.5309 15.1929 16.7257C17.9444 17.58 19.9688 20.4665 19.9688 23.8958V27.4479H7.03125Z" fill="#FE3131" fill-opacity="0.9"/>
</svg>
