<svg width="31" height="32" viewBox="0 0 31 32" fill="none" xmlns="http://www.w3.org/2000/svg">
<path d="M4.52083 29.3333H26.4792C27.1926 29.3333 27.7708 28.7364 27.7708 28V8.04753C27.7708 7.70573 27.6437 7.377 27.4156 7.1292L23.6907 3.08166C23.4468 2.81669 23.1082 2.66666 22.7542 2.66666H4.52083C3.80746 2.66666 3.22916 3.26362 3.22916 4V28C3.22916 28.7364 3.80746 29.3333 4.52083 29.3333Z" stroke="#B3FAF5" stroke-width="3"/>
<path d="M21.3125 17.3333H9.6875C8.97412 17.3333 8.39584 17.9303 8.39584 18.6667V24C8.39584 24.7364 8.97412 25.3333 9.6875 25.3333H21.3125C22.0259 25.3333 22.6042 24.7364 22.6042 24V18.6667C22.6042 17.9303 22.0259 17.3333 21.3125 17.3333Z" stroke="#B3FAF5" stroke-width="3"/>
<path d="M11.625 21.3333H19.375" stroke="#B3FAF5" stroke-width="3" stroke-linecap="round" stroke-linejoin="round"/>
<path d="M10.3333 2.66666H20.0208V8.66666C20.0208 9.03486 19.7317 9.33333 19.375 9.33333H10.9792C10.6225 9.33333 10.3333 9.03486 10.3333 8.66666V2.66666Z" stroke="#B3FAF5" stroke-width="3"/>
<path d="M16.7917 5.33334V6.66667" stroke="#B3FAF5" stroke-width="3" stroke-linecap="round" stroke-linejoin="round"/>
</svg>
